<svg width="16" height="17" viewBox="0 0 16 17" fill="none" xmlns="http://www.w3.org/2000/svg">
<path d="M15.8341 9.698C15.4783 11.4461 14.5852 12.9478 13.3595 14.0577L12.5989 13.166C13.6339 12.2204 14.3875 10.9463 14.6898 9.46101C15.4504 5.73254 13.0711 2.08854 9.37538 1.32126C7.75662 0.983376 6.14948 1.25791 4.79586 1.9853C4.6005 2.08854 4.40978 2.20352 4.22372 2.32553C2.77009 3.29695 1.68394 4.82447 1.30716 6.68284C0.544291 10.4113 2.92592 14.0577 6.62162 14.8226C8.46133 15.2051 10.2824 14.8015 11.7407 13.8394L12.3826 14.8202C10.6755 15.9489 8.54506 16.4228 6.38904 15.9747C2.06072 15.076 -0.723273 10.8102 0.165185 6.44585C0.609414 4.27072 1.88163 2.48039 3.58412 1.34472C3.76786 1.21802 3.95857 1.10539 4.15394 0.997454C5.75875 0.105813 7.67521 -0.234419 9.61261 0.16682C13.9386 1.0655 16.7249 5.3313 15.8341 9.69565V9.698Z" fill="#8A338A"/>
<path d="M14.4071 16.1366L11.2696 16.1459L6.41334 10.6694L5.66211 9.79652L7.53438 8.15167H7.56694L9.72762 10.6694H9.72064L11.2673 12.4621L14.4071 16.1366Z" fill="#451C49"/>
<path d="M12.8276 6.93155C12.8276 8.57874 11.7717 9.97956 10.3064 10.477L8.32951 8.15639H9.12261C9.79244 8.15639 10.3343 7.60967 10.3343 6.9339C10.3343 6.25813 9.79244 5.71141 9.12261 5.71141H6.25256L5.77112 5.15296L4.10352 3.19604H9.12493C11.1716 3.19604 12.8299 4.86905 12.8299 6.9339L12.8276 6.93155Z" fill="#451C49"/>
</svg>
